# Wavefront OBJ file automatically generated by Tiled2Unity

# Vertices (Count = 184)
v -448 -128 0
v -480 -128 0
v -480 -112 0
v -448 -112 0
v -512 -128 0
v -512 -112 0
v -416 -144 0
v -448 -144 0
v -416 -128 0
v -480 -144 0
v -512 -144 0
v -544 -144 0
v -544 -128 0
v -384 -160 0
v -416 -160 0
v -384 -144 0
v -448 -160 0
v -480 -160 0
v -512 -160 0
v -544 -160 0
v -576 -160 0
v -576 -144 0
v -352 -176 0
v -384 -176 0
v -352 -160 0
v -416 -176 0
v -448 -176 0
v -480 -176 0
v -512 -176 0
v -544 -176 0
v -576 -176 0
v -608 -176 0
v -608 -160 0
v -320 -192 0
v -352 -192 0
v -320 -176 0
v -384 -192 0
v -416 -192 0
v -448 -192 0
v -480 -192 0
v -512 -192 0
v -544 -192 0
v -576 -192 0
v -608 -192 0
v -640 -192 0
v -640 -176 0
v -288 -208 0
v -320 -208 0
v -288 -192 0
v -352 -208 0
v -384 -208 0
v -416 -208 0
v -448 -208 0
v -480 -208 0
v -512 -208 0
v -544 -208 0
v -576 -208 0
v -608 -208 0
v -640 -208 0
v -672 -208 0
v -672 -192 0
v -288 -224 0
v -320 -224 0
v -352 -224 0
v -384 -224 0
v -416 -224 0
v -448 -224 0
v -480 -224 0
v -512 -224 0
v -544 -224 0
v -576 -224 0
v -608 -224 0
v -640 -224 0
v -672 -224 0
v -288 -240 0
v -320 -240 0
v -352 -240 0
v -384 -240 0
v -416 -240 0
v -448 -240 0
v -480 -240 0
v -512 -240 0
v -544 -240 0
v -576 -240 0
v -608 -240 0
v -640 -240 0
v -672 -240 0
v -320 -256 0
v -352 -256 0
v -384 -256 0
v -416 -256 0
v -448 -256 0
v -480 -256 0
v -512 -256 0
v -544 -256 0
v -576 -256 0
v -608 -256 0
v -640 -256 0
v -352 -272 0
v -384 -272 0
v -416 -272 0
v -448 -272 0
v -480 -272 0
v -512 -272 0
v -544 -272 0
v -576 -272 0
v -608 -272 0
v -384 -288 0
v -416 -288 0
v -448 -288 0
v -480 -288 0
v -512 -288 0
v -544 -288 0
v -576 -288 0
v -416 -304 0
v -448 -304 0
v -480 -304 0
v -512 -304 0
v -544 -304 0
v -448 -320 0
v -480 -320 0
v -512 -320 0
v -448 -96 0
v -480 -96 0
v -480 -80 0
v -448 -80 0
v -512 -96 0
v -512 -80 0
v -416 -112 0
v -416 -96 0
v -544 -112 0
v -544 -96 0
v -384 -128 0
v -384 -112 0
v -576 -128 0
v -576 -112 0
v -352 -144 0
v -352 -128 0
v -608 -144 0
v -608 -128 0
v -320 -160 0
v -320 -144 0
v -640 -160 0
v -640 -144 0
v -256 -176 0
v -288 -176 0
v -288 -160 0
v -256 -160 0
v -672 -176 0
v -672 -160 0
v -704 -176 0
v -704 -160 0
v -256 -192 0
v -704 -192 0
v -256 -208 0
v -704 -208 0
v -448 -64 0
v -480 -64 0
v -480 -48 0
v -448 -48 0
v -512 -64 0
v -512 -48 0
v -416 -80 0
v -416 -64 0
v -544 -80 0
v -544 -64 0
v -384 -96 0
v -384 -80 0
v -576 -96 0
v -576 -80 0
v -352 -112 0
v -352 -96 0
v -608 -112 0
v -608 -96 0
v -320 -128 0
v -320 -112 0
v -640 -128 0
v -640 -112 0
v -288 -144 0
v -288 -128 0
v -672 -144 0
v -672 -128 0
v -256 -144 0
v -704 -144 0

# Texture cooridinates (Count = 80)
vt 0.6667888 0.6001221
vt 0.8332112 0.6001221
vt 0.8332112 0.7998779
vt 0.6667888 0.7998779
vt 0.0001220703 0.4001221
vt 0.1665446 0.4001221
vt 0.1665446 0.599878
vt 0.0001220703 0.599878
vt 0.1667887 0.4001221
vt 0.3332113 0.4001221
vt 0.3332113 0.599878
vt 0.1667887 0.599878
vt 0.3334554 0.4001221
vt 0.4998779 0.4001221
vt 0.4998779 0.599878
vt 0.3334554 0.599878
vt 0.5001221 0.4001221
vt 0.6665446 0.4001221
vt 0.6665446 0.599878
vt 0.5001221 0.599878
vt 0.6667888 0.8001221
vt 0.8332112 0.8001221
vt 0.8332112 0.9998779
vt 0.6667888 0.9998779
vt 0.5001221 0.8001221
vt 0.6665446 0.8001221
vt 0.6665446 0.9998779
vt 0.5001221 0.9998779
vt 0.0001220703 0.2001221
vt 0.1665446 0.2001221
vt 0.1665446 0.3998779
vt 0.0001220703 0.3998779
vt 0.8334554 0.8001221
vt 0.9998779 0.8001221
vt 0.9998779 0.9998779
vt 0.8334554 0.9998779
vt 0.3334554 0.8001221
vt 0.4998779 0.8001221
vt 0.4998779 0.9998779
vt 0.3334554 0.9998779
vt 0.1667887 0.8001221
vt 0.3332113 0.8001221
vt 0.3332113 0.9998779
vt 0.1667887 0.9998779
vt 0.1667887 0.2001221
vt 0.3332113 0.2001221
vt 0.3332113 0.3998779
vt 0.1667887 0.3998779
vt 0.0001220703 0.0001220703
vt 0.1665446 0.0001220703
vt 0.1665446 0.1998779
vt 0.0001220703 0.1998779
vt 0.3334554 0.2001221
vt 0.4998779 0.2001221
vt 0.4998779 0.3998779
vt 0.3334554 0.3998779
vt 0.5001221 0.2001221
vt 0.6665446 0.2001221
vt 0.6665446 0.3998779
vt 0.5001221 0.3998779
vt 0.0001220703 0.6001221
vt 0.1665446 0.6001221
vt 0.1665446 0.7998779
vt 0.0001220703 0.7998779
vt 0.1667887 0.6001221
vt 0.3332113 0.6001221
vt 0.3332113 0.7998779
vt 0.1667887 0.7998779
vt 0.8334554 0.6001221
vt 0.9998779 0.6001221
vt 0.9998779 0.7998779
vt 0.8334554 0.7998779
vt 0.5001221 0.6001221
vt 0.6665446 0.6001221
vt 0.6665446 0.7998779
vt 0.5001221 0.7998779
vt 0.3334554 0.6001221
vt 0.4998779 0.6001221
vt 0.4998779 0.7998779
vt 0.3334554 0.7998779

# Normal
vn 0 0 -1

# Groups (Count = 4)

g mesh_0001
f 1/1/1 2/2/1 3/3/1 4/4/1
f 2/1/1 5/2/1 6/3/1 3/4/1
f 7/1/1 8/2/1 1/3/1 9/4/1
f 8/1/1 10/2/1 2/3/1 1/4/1
f 10/1/1 11/2/1 5/3/1 2/4/1
f 11/1/1 12/2/1 13/3/1 5/4/1
f 14/1/1 15/2/1 7/3/1 16/4/1
f 15/1/1 17/2/1 8/3/1 7/4/1
f 17/1/1 18/2/1 10/3/1 8/4/1
f 18/1/1 19/2/1 11/3/1 10/4/1
f 19/1/1 20/2/1 12/3/1 11/4/1
f 20/1/1 21/2/1 22/3/1 12/4/1
f 23/1/1 24/2/1 14/3/1 25/4/1
f 24/1/1 26/2/1 15/3/1 14/4/1
f 26/1/1 27/2/1 17/3/1 15/4/1
f 27/1/1 28/2/1 18/3/1 17/4/1
f 28/1/1 29/2/1 19/3/1 18/4/1
f 29/1/1 30/2/1 20/3/1 19/4/1
f 30/1/1 31/2/1 21/3/1 20/4/1
f 31/1/1 32/2/1 33/3/1 21/4/1
f 34/1/1 35/2/1 23/3/1 36/4/1
f 35/1/1 37/2/1 24/3/1 23/4/1
f 37/1/1 38/2/1 26/3/1 24/4/1
f 38/1/1 39/2/1 27/3/1 26/4/1
f 39/1/1 40/2/1 28/3/1 27/4/1
f 40/1/1 41/2/1 29/3/1 28/4/1
f 41/1/1 42/2/1 30/3/1 29/4/1
f 42/1/1 43/2/1 31/3/1 30/4/1
f 43/1/1 44/2/1 32/3/1 31/4/1
f 44/1/1 45/2/1 46/3/1 32/4/1
f 47/1/1 48/2/1 34/3/1 49/4/1
f 48/1/1 50/2/1 35/3/1 34/4/1
f 50/1/1 51/2/1 37/3/1 35/4/1
f 51/1/1 52/2/1 38/3/1 37/4/1
f 52/1/1 53/2/1 39/3/1 38/4/1
f 53/1/1 54/2/1 40/3/1 39/4/1
f 54/1/1 55/2/1 41/3/1 40/4/1
f 55/1/1 56/2/1 42/3/1 41/4/1
f 56/1/1 57/2/1 43/3/1 42/4/1
f 57/1/1 58/2/1 44/3/1 43/4/1
f 58/1/1 59/2/1 45/3/1 44/4/1
f 59/1/1 60/2/1 61/3/1 45/4/1
f 62/5/1 63/6/1 48/7/1 47/8/1
f 63/1/1 64/2/1 50/3/1 48/4/1
f 64/1/1 65/2/1 51/3/1 50/4/1
f 65/1/1 66/2/1 52/3/1 51/4/1
f 66/1/1 67/2/1 53/3/1 52/4/1
f 67/1/1 68/2/1 54/3/1 53/4/1
f 68/1/1 69/2/1 55/3/1 54/4/1
f 69/1/1 70/2/1 56/3/1 55/4/1
f 70/1/1 71/2/1 57/3/1 56/4/1
f 71/1/1 72/2/1 58/3/1 57/4/1
f 72/1/1 73/2/1 59/3/1 58/4/1
f 73/9/1 74/10/1 60/11/1 59/12/1
f 75/13/1 76/14/1 63/15/1 62/16/1
f 76/5/1 77/6/1 64/7/1 63/8/1
f 77/1/1 78/2/1 65/3/1 64/4/1
f 78/1/1 79/2/1 66/3/1 65/4/1
f 79/1/1 80/2/1 67/3/1 66/4/1
f 80/1/1 81/2/1 68/3/1 67/4/1
f 81/1/1 82/2/1 69/3/1 68/4/1
f 82/1/1 83/2/1 70/3/1 69/4/1
f 83/1/1 84/2/1 71/3/1 70/4/1
f 84/1/1 85/2/1 72/3/1 71/4/1
f 85/9/1 86/10/1 73/11/1 72/12/1
f 86/17/1 87/18/1 74/19/1 73/20/1
f 88/13/1 89/14/1 77/15/1 76/16/1
f 89/5/1 90/6/1 78/7/1 77/8/1
f 90/1/1 91/2/1 79/3/1 78/4/1
f 91/1/1 92/2/1 80/3/1 79/4/1
f 92/1/1 93/2/1 81/3/1 80/4/1
f 93/1/1 94/2/1 82/3/1 81/4/1
f 94/1/1 95/2/1 83/3/1 82/4/1
f 95/1/1 96/2/1 84/3/1 83/4/1
f 96/9/1 97/10/1 85/11/1 84/12/1
f 97/17/1 98/18/1 86/19/1 85/20/1
f 99/13/1 100/14/1 90/15/1 89/16/1
f 100/5/1 101/6/1 91/7/1 90/8/1
f 101/1/1 102/2/1 92/3/1 91/4/1
f 102/1/1 103/2/1 93/3/1 92/4/1
f 103/1/1 104/2/1 94/3/1 93/4/1
f 104/1/1 105/2/1 95/3/1 94/4/1
f 105/9/1 106/10/1 96/11/1 95/12/1
f 106/17/1 107/18/1 97/19/1 96/20/1
f 108/13/1 109/14/1 101/15/1 100/16/1
f 109/5/1 110/6/1 102/7/1 101/8/1
f 110/1/1 111/2/1 103/3/1 102/4/1
f 111/1/1 112/2/1 104/3/1 103/4/1
f 112/9/1 113/10/1 105/11/1 104/12/1
f 113/17/1 114/18/1 106/19/1 105/20/1
f 115/13/1 116/14/1 110/15/1 109/16/1
f 116/5/1 117/6/1 111/7/1 110/8/1
f 117/9/1 118/10/1 112/11/1 111/12/1
f 118/17/1 119/18/1 113/19/1 112/20/1
f 120/13/1 121/14/1 117/15/1 116/16/1
f 121/17/1 122/18/1 118/19/1 117/20/1

g mesh_0002
f 123/21/1 124/22/1 125/23/1 126/24/1
f 124/25/1 127/26/1 128/27/1 125/28/1
f 129/21/1 4/22/1 123/23/1 130/24/1
f 4/29/1 3/30/1 124/31/1 123/32/1
f 3/33/1 6/34/1 127/35/1 124/36/1
f 6/25/1 131/26/1 132/27/1 127/28/1
f 133/21/1 9/22/1 129/23/1 134/24/1
f 9/29/1 1/30/1 4/31/1 129/32/1
f 1/37/1 2/38/1 3/39/1 4/40/1
f 2/41/1 5/42/1 6/43/1 3/44/1
f 5/33/1 13/34/1 131/35/1 6/36/1
f 13/25/1 135/26/1 136/27/1 131/28/1
f 137/21/1 16/22/1 133/23/1 138/24/1
f 16/29/1 7/30/1 9/31/1 133/32/1
f 7/37/1 8/38/1 1/39/1 9/40/1
f 11/41/1 12/42/1 13/43/1 5/44/1
f 12/33/1 22/34/1 135/35/1 13/36/1
f 22/25/1 139/26/1 140/27/1 135/28/1
f 141/21/1 25/22/1 137/23/1 142/24/1
f 25/29/1 14/30/1 16/31/1 137/32/1
f 14/37/1 15/38/1 7/39/1 16/40/1
f 20/41/1 21/42/1 22/43/1 12/44/1
f 21/33/1 33/34/1 139/35/1 22/36/1
f 33/25/1 143/26/1 144/27/1 139/28/1
f 145/25/1 146/26/1 147/27/1 148/28/1
f 146/21/1 36/22/1 141/23/1 147/24/1
f 36/29/1 23/30/1 25/31/1 141/32/1
f 23/37/1 24/38/1 14/39/1 25/40/1
f 31/41/1 32/42/1 33/43/1 21/44/1
f 32/41/1 46/42/1 143/43/1 33/44/1
f 46/25/1 149/26/1 150/27/1 143/28/1
f 149/21/1 151/22/1 152/23/1 150/24/1
f 153/33/1 49/34/1 146/35/1 145/36/1
f 49/29/1 34/30/1 36/31/1 146/32/1
f 34/37/1 35/38/1 23/39/1 36/40/1
f 45/33/1 61/34/1 149/35/1 46/36/1
f 61/29/1 154/30/1 151/31/1 149/32/1
f 155/41/1 47/42/1 49/43/1 153/44/1
f 47/37/1 48/38/1 34/39/1 49/40/1
f 59/41/1 60/42/1 61/43/1 45/44/1
f 60/37/1 156/38/1 154/39/1 61/40/1

g mesh_0003
f 42/45/1 43/46/1 31/47/1 30/48/1
f 43/49/1 44/50/1 32/51/1 31/52/1
f 56/53/1 57/54/1 43/55/1 42/56/1
f 57/57/1 58/58/1 44/59/1 43/60/1

g mesh_0004
f 157/61/1 158/62/1 159/63/1 160/64/1
f 158/65/1 161/66/1 162/67/1 159/68/1
f 163/61/1 126/62/1 157/63/1 164/64/1
f 126/69/1 125/70/1 158/71/1 157/72/1
f 125/69/1 128/70/1 161/71/1 158/72/1
f 128/65/1 165/66/1 166/67/1 161/68/1
f 167/61/1 130/62/1 163/63/1 168/64/1
f 130/69/1 123/70/1 126/71/1 163/72/1
f 123/73/1 124/74/1 125/75/1 126/76/1
f 124/77/1 127/78/1 128/79/1 125/80/1
f 127/69/1 132/70/1 165/71/1 128/72/1
f 132/65/1 169/66/1 170/67/1 165/68/1
f 171/61/1 134/62/1 167/63/1 172/64/1
f 134/69/1 129/70/1 130/71/1 167/72/1
f 129/73/1 4/74/1 123/75/1 130/76/1
f 6/77/1 131/78/1 132/79/1 127/80/1
f 131/69/1 136/70/1 169/71/1 132/72/1
f 136/65/1 173/66/1 174/67/1 169/68/1
f 175/61/1 138/62/1 171/63/1 176/64/1
f 138/69/1 133/70/1 134/71/1 171/72/1
f 133/73/1 9/74/1 129/75/1 134/76/1
f 13/77/1 135/78/1 136/79/1 131/80/1
f 135/69/1 140/70/1 173/71/1 136/72/1
f 140/65/1 177/66/1 178/67/1 173/68/1
f 179/61/1 142/62/1 175/63/1 180/64/1
f 142/69/1 137/70/1 138/71/1 175/72/1
f 137/73/1 16/74/1 133/75/1 138/76/1
f 22/77/1 139/78/1 140/79/1 135/80/1
f 139/69/1 144/70/1 177/71/1 140/72/1
f 144/65/1 181/66/1 182/67/1 177/68/1
f 148/61/1 147/62/1 179/63/1 183/64/1
f 147/69/1 141/70/1 142/71/1 179/72/1
f 141/73/1 25/74/1 137/75/1 142/76/1
f 33/77/1 143/78/1 144/79/1 139/80/1
f 143/69/1 150/70/1 181/71/1 144/72/1
f 150/65/1 152/66/1 184/67/1 181/68/1
f 145/77/1 146/78/1 147/79/1 148/80/1
f 146/73/1 36/74/1 141/75/1 147/76/1
f 31/61/1 32/62/1 33/63/1 21/64/1
f 32/65/1 46/66/1 143/67/1 33/68/1
f 46/77/1 149/78/1 150/79/1 143/80/1
f 149/73/1 151/74/1 152/75/1 150/76/1
f 43/77/1 44/78/1 32/79/1 31/80/1
f 44/73/1 45/74/1 46/75/1 32/76/1

